<svg xmlns="http://www.w3.org/2000/svg" xmlns:xlink="http://www.w3.org/1999/xlink" width="336" zoomAndPan="magnify" viewBox="0 0 252 143.999998" height="192" preserveAspectRatio="xMidYMid meet" version="1.0"><defs><g/><clipPath id="id1"><path d="M 95.132812 13 L 179.882812 13 L 179.882812 111.914062 L 95.132812 111.914062 Z M 95.132812 13 " clip-rule="nonzero"/></clipPath><clipPath id="id2"><path d="M 85 37 L 139 37 L 139 106 L 85 106 Z M 85 37 " clip-rule="nonzero"/></clipPath><clipPath id="id3"><path d="M 72.203125 77.289062 L 130.828125 31.71875 L 158.445312 67.25 L 99.824219 112.816406 Z M 72.203125 77.289062 " clip-rule="nonzero"/></clipPath><clipPath id="id4"><path d="M 72.203125 77.289062 L 130.828125 31.71875 L 158.445312 67.25 L 99.824219 112.816406 Z M 72.203125 77.289062 " clip-rule="nonzero"/></clipPath><clipPath id="id5"><path d="M 72.222656 77.277344 L 130.820312 31.726562 L 158.445312 67.261719 L 99.847656 112.816406 Z M 72.222656 77.277344 " clip-rule="nonzero"/></clipPath><clipPath id="id6"><path d="M 72.222656 77.277344 L 130.8125 31.730469 L 158.425781 67.257812 L 99.839844 112.804688 Z M 72.222656 77.277344 " clip-rule="nonzero"/></clipPath><clipPath id="id7"><path d="M 97 92 L 101 92 L 101 99 L 97 99 Z M 97 92 " clip-rule="nonzero"/></clipPath><clipPath id="id8"><path d="M 72.203125 77.289062 L 130.828125 31.71875 L 158.445312 67.25 L 99.824219 112.816406 Z M 72.203125 77.289062 " clip-rule="nonzero"/></clipPath><clipPath id="id9"><path d="M 72.203125 77.289062 L 130.828125 31.71875 L 158.445312 67.25 L 99.824219 112.816406 Z M 72.203125 77.289062 " clip-rule="nonzero"/></clipPath></defs><rect x="-25.2" width="302.4" fill="#ffffff" y="-14.4" height="172.799997" fill-opacity="1"/><rect x="-25.2" width="302.4" fill="#ff66c4" y="-14.4" height="172.799997" fill-opacity="1"/><rect x="-25.2" width="302.4" fill="#ffffff" y="-14.4" height="172.799997" fill-opacity="1"/><rect x="-25.2" width="302.4" fill="#ff66c4" y="-14.4" height="172.799997" fill-opacity="1"/><g clip-path="url(#id1)"><path fill="#000000" d="M 175.835938 92.105469 C 176.441406 89.257812 175.375 85.441406 173.636719 83.097656 C 174.675781 91.421875 170.296875 100.167969 162.996094 104.347656 C 164.570312 102.339844 164.832031 99.566406 164.765625 97.019531 C 163.109375 102.269531 158.667969 106.316406 153.640625 108.59375 C 148.613281 110.875 143.019531 111.589844 137.507812 111.902344 C 131.992188 111.589844 126.398438 110.875 121.371094 108.59375 C 116.34375 106.316406 111.902344 102.269531 110.246094 97.019531 C 110.183594 99.566406 110.441406 102.339844 112.015625 104.347656 C 104.714844 100.167969 100.335938 91.421875 101.375 83.097656 C 99.636719 85.441406 98.570312 89.257812 99.175781 92.105469 C 96.589844 89.640625 95.128906 86.046875 95.265625 82.488281 C 95.425781 78.300781 97.621094 74.507812 99.480469 70.746094 C 101.335938 66.988281 102.933594 62.722656 101.808594 58.683594 C 100.71875 54.761719 97.773438 51.363281 98.988281 47.476562 C 99.761719 45.003906 101.363281 42.882812 102.933594 40.820312 C 103.628906 39.910156 104.324219 39 105.015625 38.089844 C 103.117188 39.222656 100.894531 40.105469 98.996094 41.242188 C 100.429688 31.015625 104.835938 25.316406 111.546875 17.445312 C 110.832031 19.589844 110.035156 21.601562 109.316406 23.742188 C 114.816406 17.070312 127.335938 12.171875 137.507812 13.226562 C 147.675781 12.171875 160.195312 17.070312 165.695312 23.742188 C 164.976562 21.601562 164.183594 19.589844 163.464844 17.445312 C 170.175781 25.316406 174.582031 31.015625 176.015625 41.242188 C 174.117188 40.105469 171.898438 39.222656 169.996094 38.089844 C 170.6875 39 171.382812 39.910156 172.078125 40.820312 C 173.648438 42.882812 175.25 45.003906 176.023438 47.476562 C 177.238281 51.363281 174.292969 54.761719 173.203125 58.683594 C 172.078125 62.722656 173.675781 66.988281 175.53125 70.746094 C 177.390625 74.507812 179.589844 78.300781 179.746094 82.488281 C 179.882812 86.046875 178.421875 89.640625 175.835938 92.105469 Z M 175.835938 92.105469 " fill-opacity="1" fill-rule="nonzero"/></g><path fill="#f186fe" d="M 161.847656 53.011719 C 163.421875 51.257812 164.363281 48.949219 164.460938 46.597656 C 164.0625 47.390625 163.390625 47.796875 162.574219 48.152344 C 163.414062 47.089844 163.796875 45.683594 163.609375 44.34375 C 163.425781 43.007812 162.671875 41.757812 161.578125 40.960938 C 161.671875 40.925781 161.769531 40.890625 161.863281 40.855469 C 163.414062 41.335938 164.578125 41.6875 166.128906 42.167969 C 164.652344 37.964844 161.78125 34.257812 158.074219 31.765625 C 158.183594 31.765625 158.296875 31.769531 158.40625 31.773438 C 155.925781 31.328125 153.273438 31.875 151.464844 33.589844 C 152.546875 32.230469 154.28125 30.472656 155.367188 29.117188 C 151.269531 29.976562 147.4375 32.035156 144.46875 34.976562 C 143.742188 35.699219 143.039062 36.554688 142.726562 37.503906 C 143.085938 35.789062 144.039062 33.867188 145.003906 32.652344 C 142.628906 33.375 140.078125 34.222656 138.660156 36.25 C 137.84375 37.410156 137.152344 38.683594 136.78125 40.039062 C 135.503906 36.636719 132.210938 34.054688 128.828125 32.65625 C 130.425781 34.238281 131.113281 36.925781 130.875 39.15625 C 130.890625 37.882812 129.84375 36.863281 128.800781 36.128906 C 126.0625 34.191406 122.777344 33.316406 119.421875 33.148438 C 121.9375 33.476562 124.007812 35.40625 124.710938 37.832031 C 122.289062 35.285156 118.21875 34.460938 114.992188 35.867188 C 111.765625 37.277344 109.9375 40.773438 110.175781 44.273438 C 110.164062 44.285156 110.152344 44.292969 110.140625 44.300781 C 109.308594 44.9375 108.761719 45.894531 108.484375 46.902344 C 108.203125 47.925781 108.179688 49.003906 108.246094 50.0625 C 108.328125 51.402344 108.550781 52.730469 108.90625 54.023438 C 108.46875 52.054688 109.351562 49.816406 110.503906 48.160156 C 110.523438 50.382812 110.550781 52.640625 111.164062 54.777344 C 111.78125 56.914062 112.96875 58.816406 114.949219 59.84375 C 113.78125 58.757812 113.699219 57.105469 114.167969 55.582031 C 114.425781 57.199219 115.816406 58.457031 117.351562 59.035156 C 118.890625 59.613281 120.726562 59.59375 122.371094 59.609375 C 121.078125 60.355469 120.609375 62.210938 120.984375 63.648438 C 122.964844 60.203125 126.214844 57.671875 130.039062 56.542969 C 129.765625 56.664062 129.515625 56.828125 129.296875 57.023438 C 128.679688 57.578125 128.285156 58.386719 128.195312 59.214844 C 128.074219 60.339844 128.457031 61.480469 129.089844 62.417969 C 129.726562 63.355469 130.929688 63.484375 131.410156 64.511719 C 131.46875 64.640625 131.527344 64.769531 131.589844 64.898438 C 131.609375 64.945312 131.632812 64.996094 131.65625 65.042969 C 130.472656 64.710938 129.375 64.222656 128.378906 63.5625 C 128.03125 63.332031 127.695312 63.082031 127.375 62.808594 C 127.050781 62.535156 126.746094 62.238281 126.453125 61.921875 C 121.320312 65.28125 117.902344 71.117188 117.496094 77.222656 C 118.570312 75.96875 120.140625 74.558594 121.214844 73.300781 C 120.300781 74.421875 119.617188 75.71875 119.171875 77.097656 C 118.992188 77.660156 118.851562 78.234375 118.75 78.820312 C 118.28125 81.480469 118.632812 84.308594 119.808594 86.71875 C 119.085938 85.183594 119.882812 83.34375 120.695312 81.855469 C 122.191406 86.542969 126.175781 90.355469 130.929688 91.675781 C 130.847656 91.546875 130.78125 91.402344 130.722656 91.261719 C 130.265625 90.164062 130.023438 88.976562 130 87.789062 C 132.46875 90.441406 135.515625 92.5625 138.867188 93.949219 C 139.402344 94.171875 140.195312 94.5625 140.753906 94.40625 C 140.914062 94.363281 141.078125 94.316406 141.238281 94.265625 C 142.769531 93.808594 144.304688 93.175781 145.742188 92.375 C 147.738281 91.269531 149.539062 89.839844 150.871094 88.097656 C 150.496094 90.1875 149.730469 91.75 147.851562 92.746094 C 150.011719 91.988281 151.988281 90.773438 153.679688 89.234375 C 154.527344 88.464844 155.300781 87.613281 155.992188 86.699219 C 156.355469 86.21875 156.695312 85.71875 157.007812 85.207031 C 158.101562 83.425781 158.890625 81.460938 159.300781 79.417969 C 159.214844 79.269531 159.496094 79.3125 159.371094 79.429688 C 159.964844 80.582031 160.371094 81.824219 160.578125 83.101562 C 160.621094 83.386719 160.660156 83.972656 160.578125 84.410156 C 161.886719 81.855469 162.1875 78.804688 161.398438 76.046875 C 161.375 75.953125 161.347656 75.859375 161.316406 75.769531 C 160.667969 73.703125 159.40625 71.53125 157.933594 69.9375 C 159.59375 70.8125 161.488281 72.085938 162.695312 73.519531 C 161.449219 71 160.171875 68.4375 158.300781 66.351562 C 158.105469 66.136719 157.902344 65.925781 157.695312 65.722656 C 156.433594 64.472656 154.800781 63.414062 153.070312 62.859375 C 152.09375 62.546875 151.082031 62.394531 150.085938 62.460938 C 149.761719 62.480469 149.441406 62.527344 149.121094 62.59375 C 150.070312 62.308594 150.8125 61.503906 151.105469 60.566406 C 151.230469 60.164062 151.273438 59.734375 151.210938 59.3125 C 151.050781 58.25 150.316406 57.339844 149.429688 56.726562 C 148.613281 56.160156 147.597656 55.867188 146.648438 55.546875 C 146.566406 55.519531 146.488281 55.492188 146.40625 55.464844 C 146.480469 55.476562 146.558594 55.488281 146.632812 55.503906 C 146.628906 55.492188 146.625 55.476562 146.621094 55.464844 C 150.371094 56.238281 154.367188 55.75 157.8125 54.089844 C 157.15625 54.765625 156.390625 55.628906 155.734375 56.300781 C 158.070312 55.949219 160.269531 54.761719 161.847656 53.011719 Z M 130.5 58.226562 C 130.667969 57.332031 131.117188 56.949219 131.929688 56.535156 C 132.722656 56.132812 133.71875 56.398438 134.410156 56.953125 C 135.101562 57.503906 135.550781 58.292969 135.984375 59.066406 C 136.816406 60.546875 137.386719 62.171875 138.222656 63.652344 C 137.144531 63.953125 136.003906 64.023438 134.898438 63.851562 C 134.140625 63.734375 133.382812 63.496094 132.757812 63.042969 C 132.132812 62.59375 131.824219 61.917969 131.730469 61.15625 C 132.242188 61.566406 132.925781 61.90625 133.578125 61.957031 C 133.15625 61.667969 132.757812 61.375 132.484375 60.925781 C 132.316406 60.648438 132.246094 59.496094 132.132812 59.398438 C 132.203125 59.457031 132.273438 59.519531 132.34375 59.578125 C 132.269531 59.070312 133.699219 58.265625 133.570312 57.769531 C 133.5 57.5 133.183594 57.386719 132.910156 57.355469 C 132.03125 57.257812 131.113281 57.589844 130.5 58.226562 Z M 148.023438 75.6875 C 149.015625 75.84375 150.003906 76.015625 150.992188 76.207031 C 153.082031 76.613281 155.15625 77.097656 157.203125 77.648438 C 155.613281 78.386719 153.929688 78.847656 152.199219 79.117188 C 150.066406 79.453125 147.871094 79.492188 145.710938 79.386719 C 143.773438 79.289062 136.042969 79.289062 134.101562 79.386719 C 133.386719 79.421875 132.667969 79.441406 131.949219 79.4375 C 128.734375 79.429688 125.507812 78.992188 122.609375 77.648438 C 122.726562 77.617188 122.84375 77.585938 122.960938 77.554688 C 125.910156 76.773438 128.902344 76.132812 131.921875 75.667969 C 134.570312 75.261719 137.234375 74.988281 139.90625 74.886719 C 142.621094 74.992188 145.332031 75.269531 148.023438 75.6875 Z M 146.546875 59.042969 C 146.644531 59.722656 146.269531 60.402344 145.746094 60.847656 C 145.222656 61.292969 144.570312 61.550781 143.925781 61.796875 C 144.835938 61.917969 145.785156 61.691406 146.542969 61.175781 C 146.351562 61.480469 146.121094 61.773438 145.863281 62.039062 C 144.425781 63.546875 142.09375 64.390625 140.132812 63.847656 C 140.125 63.847656 140.121094 63.84375 140.113281 63.84375 C 140.113281 63.839844 140.113281 63.835938 140.113281 63.832031 C 140.113281 63.824219 140.113281 63.808594 140.113281 63.796875 C 140.191406 62.40625 140.4375 61.019531 140.851562 59.6875 C 141.207031 58.53125 141.726562 57.359375 142.691406 56.625 C 143.660156 55.890625 145.171875 55.753906 146.03125 56.613281 C 145.160156 56.550781 144.484375 57.078125 143.75 57.542969 C 144.332031 57.425781 144.957031 57.449219 145.492188 57.703125 C 146.03125 57.957031 146.464844 58.460938 146.546875 59.042969 Z M 157.171875 52.625 C 155.734375 52.90625 154.246094 52.632812 152.832031 52.25 C 151.417969 51.867188 150.027344 51.371094 148.570312 51.203125 C 147.117188 51.035156 145.550781 51.226562 144.378906 52.105469 C 146.035156 52.222656 147.75 52.972656 148.90625 54.15625 C 147.101562 53.832031 145.292969 53.503906 143.488281 53.175781 C 142.585938 53.015625 141.5 52.914062 140.910156 53.613281 C 140.617188 53.960938 140.527344 54.4375 140.5 54.890625 C 140.472656 55.34375 140.496094 55.804688 140.390625 56.25 C 140.28125 56.691406 140.007812 57.125 139.574219 57.273438 C 139.140625 57.421875 138.296875 57.03125 138.257812 56.578125 C 138.25 56.695312 138.238281 56.808594 138.226562 56.925781 C 138.15625 55.894531 137.882812 54.828125 137.175781 54.074219 C 136.078125 52.898438 134.1875 52.773438 132.683594 53.34375 C 131.332031 53.855469 130.21875 54.820312 129.15625 55.808594 C 129.039062 55.921875 128.917969 56.035156 128.800781 56.144531 C 128.839844 56.046875 128.886719 55.949219 128.933594 55.851562 C 129.660156 54.410156 131.277344 53.105469 132.824219 52.777344 C 132.441406 52.617188 131.878906 52.496094 131.496094 52.335938 C 129.59375 52.71875 127.695312 53.101562 125.792969 53.488281 C 124.523438 53.742188 123.242188 54 121.945312 53.96875 C 120.5 53.933594 119.015625 53.1875 118.277344 51.949219 C 120.144531 52.671875 122.378906 52.683594 124.359375 52.40625 C 122.546875 52.246094 120.8125 51.339844 119.652344 49.945312 C 118.488281 48.554688 117.78125 46.777344 117.953125 44.972656 C 116.246094 45.136719 114.589844 45.820312 113.265625 46.90625 C 113.273438 46.867188 113.28125 46.824219 113.289062 46.785156 C 113.835938 44.25 116.472656 43.078125 118.570312 43.304688 C 119.902344 43.453125 121.121094 44.089844 122.367188 44.582031 C 126.5 46.21875 131.261719 45.964844 135.433594 44.4375 C 135.800781 44.648438 136.203125 44.792969 136.621094 44.867188 C 137.003906 44.9375 137.398438 44.949219 137.785156 44.90625 C 138.414062 44.832031 139.027344 44.609375 139.542969 44.242188 C 140.058594 43.878906 140.414062 43.484375 140.324219 42.863281 C 141.210938 43.792969 142.664062 43.988281 143.914062 43.6875 C 145.164062 43.382812 146.261719 42.65625 147.332031 41.945312 C 149.003906 40.835938 150.675781 39.722656 152.347656 38.609375 C 153.492188 37.847656 154.652344 37.082031 155.941406 36.597656 C 157.230469 36.117188 158.683594 35.941406 159.984375 36.386719 C 160.0625 36.414062 160.140625 36.441406 160.21875 36.472656 C 161.40625 36.96875 162.320312 38.070312 162.441406 39.355469 C 160.707031 38.425781 158.722656 37.972656 156.753906 38.054688 C 156.753906 38.109375 156.632812 37.996094 156.632812 38.054688 C 158.652344 39.816406 159.605469 42.710938 159.03125 45.324219 C 158.460938 47.9375 156.027344 50.210938 153.453125 50.980469 C 153.457031 51.027344 153.460938 51.074219 153.464844 51.121094 C 155.808594 51.800781 158.71875 51.746094 160.441406 50.019531 C 159.992188 51.410156 158.609375 52.347656 157.171875 52.625 Z M 157.171875 52.625 " fill-opacity="1" fill-rule="nonzero"/><path fill="#d3e966" d="M 129.285156 48.164062 C 128.359375 49.625 126.46875 50.367188 124.824219 49.910156 C 123.179688 49.453125 121.917969 47.835938 121.84375 46.09375 C 122.269531 46.28125 122.828125 46.320312 123.253906 46.503906 C 123.277344 47.460938 123.816406 48.296875 124.679688 48.667969 C 125.078125 48.835938 125.554688 48.890625 125.933594 48.683594 C 126.316406 48.472656 126.539062 47.949219 126.324219 47.5625 C 126.222656 47.742188 126.019531 47.882812 125.828125 47.957031 C 125.640625 48.035156 125.402344 48.003906 125.261719 47.851562 C 125.089844 47.660156 125.132812 47.335938 125.292969 47.136719 C 125.457031 46.9375 125.710938 46.839844 125.960938 46.785156 C 126.582031 46.648438 127.246094 46.734375 127.816406 47.023438 C 128.386719 47.3125 129.015625 47.574219 129.285156 48.164062 Z M 129.285156 48.164062 " fill-opacity="1" fill-rule="nonzero"/><path fill="#d3e966" d="M 146.886719 46.65625 C 148.148438 47.824219 150.167969 48.039062 151.636719 47.164062 C 153.109375 46.285156 153.921875 44.386719 153.550781 42.6875 C 153.183594 42.980469 152.65625 43.164062 152.292969 43.457031 C 152.511719 44.386719 152.203125 45.339844 151.460938 45.921875 C 151.121094 46.191406 150.675781 46.371094 150.253906 46.269531 C 149.835938 46.171875 149.484375 45.722656 149.59375 45.292969 C 149.738281 45.441406 149.96875 45.519531 150.171875 45.542969 C 150.375 45.566406 150.597656 45.476562 150.691406 45.289062 C 150.808594 45.058594 150.691406 44.757812 150.480469 44.609375 C 150.273438 44.460938 150.003906 44.433594 149.75 44.445312 C 149.113281 44.476562 148.492188 44.738281 148.015625 45.167969 C 147.539062 45.597656 146.996094 46.015625 146.886719 46.65625 Z M 146.886719 46.65625 " fill-opacity="1" fill-rule="nonzero"/><path fill="#f186fe" d="M 145.339844 50.050781 C 144.121094 49.292969 142.902344 49.03125 141.488281 49.277344 C 142.554688 49.710938 143.070312 50.851562 143.125 51.996094 C 143.183594 51.949219 143.242188 51.902344 143.300781 51.855469 C 140.058594 50.535156 136.230469 50.722656 133.136719 52.359375 C 134.496094 51.496094 135.914062 50.722656 137.375 50.042969 C 135.878906 50.214844 134.417969 50.667969 133.09375 51.375 C 133.777344 50.792969 134.644531 50.269531 135.328125 49.6875 C 134.03125 49.394531 132.617188 49.65625 131.515625 50.398438 C 134.195312 46.71875 144.039062 47.582031 145.339844 50.050781 Z M 145.339844 50.050781 " fill-opacity="1" fill-rule="nonzero"/><path fill="#f186fe" d="M 131.234375 92.007812 C 131.382812 92.109375 131.292969 92.089844 131.234375 92.007812 Z M 131.234375 92.007812 " fill-opacity="1" fill-rule="nonzero"/><path fill="#f186fe" d="M 160.578125 84.410156 C 160.53125 84.671875 160.441406 84.886719 160.285156 84.953125 C 160.386719 84.777344 160.484375 84.59375 160.578125 84.410156 Z M 160.578125 84.410156 " fill-opacity="1" fill-rule="nonzero"/><path fill="#f186fe" d="M 131.234375 92.007812 C 131.109375 91.917969 131.011719 91.804688 130.929688 91.675781 C 131.035156 91.707031 131.136719 91.734375 131.242188 91.761719 C 131.164062 91.859375 131.191406 91.949219 131.234375 92.007812 Z M 131.234375 92.007812 " fill-opacity="1" fill-rule="nonzero"/><path fill="#f186fe" d="M 169.175781 48.765625 C 168.769531 45.800781 168.292969 42.828125 167.191406 40.046875 C 165.957031 36.945312 163.847656 34.058594 160.84375 32.574219 C 160.078125 32.195312 159.253906 31.925781 158.402344 31.773438 C 158.296875 31.769531 158.183594 31.765625 158.074219 31.765625 C 161.78125 34.257812 164.652344 37.960938 166.128906 42.167969 C 164.578125 41.6875 163.414062 41.335938 161.863281 40.855469 C 161.769531 40.890625 161.671875 40.925781 161.578125 40.960938 C 162.671875 41.757812 163.425781 43.007812 163.609375 44.34375 C 163.796875 45.683594 163.414062 47.089844 162.574219 48.152344 C 163.390625 47.796875 164.0625 47.390625 164.460938 46.597656 C 164.363281 48.949219 163.421875 51.257812 161.847656 53.011719 C 160.269531 54.761719 158.070312 55.949219 155.734375 56.300781 C 156.386719 55.628906 157.15625 54.761719 157.8125 54.089844 C 154.367188 55.75 150.367188 56.238281 146.621094 55.464844 C 146.625 55.476562 146.628906 55.488281 146.632812 55.5 C 151.449219 56.308594 155.917969 59.019531 158.847656 62.914062 C 158.3125 61.390625 157.363281 60.097656 156.828125 58.574219 C 160.128906 58.101562 163.339844 55.921875 164.539062 52.820312 C 164.171875 54.722656 163.363281 56.453125 162.003906 57.835938 C 164.300781 56.742188 166.089844 54.644531 166.800781 52.207031 C 167.507812 49.773438 166.847656 46.972656 165.5 44.824219 C 167.265625 45.574219 168.726562 46.984375 169.175781 48.765625 Z M 169.175781 48.765625 " fill-opacity="1" fill-rule="nonzero"/><path fill="#5e17eb" d="M 157.933594 69.9375 C 159.410156 71.527344 160.667969 73.699219 161.316406 75.769531 C 161.347656 75.859375 161.375 75.953125 161.402344 76.042969 C 162.1875 78.800781 161.886719 81.855469 160.578125 84.410156 C 160.660156 83.96875 160.621094 83.386719 160.578125 83.101562 C 160.375 81.824219 159.964844 80.578125 159.371094 79.429688 C 159.496094 79.3125 159.214844 79.269531 159.304688 79.417969 C 158.890625 81.457031 158.101562 83.421875 157.007812 85.207031 C 155.941406 83.808594 154.875 82.414062 153.808594 81.019531 C 153.308594 80.371094 152.785156 79.699219 152.199219 79.117188 C 153.929688 78.847656 155.613281 78.386719 157.203125 77.648438 C 155.15625 77.097656 153.082031 76.613281 150.992188 76.207031 C 150.003906 76.015625 149.015625 75.84375 148.023438 75.6875 C 148.660156 74.644531 149.035156 73.441406 149.066406 72.222656 C 149.125 69.976562 148.019531 67.730469 146.199219 66.402344 C 145.34375 68.015625 144.484375 69.632812 143.628906 71.25 C 143.878906 68.402344 142.492188 65.472656 140.132812 63.847656 C 142.09375 64.390625 144.425781 63.546875 145.863281 62.039062 C 146.804688 61.566406 147.6875 61 148.480469 60.335938 C 147.902344 62.308594 146.753906 64.109375 145.210938 65.46875 C 147.003906 64.820312 148.429688 63.453125 150.0625 62.472656 C 150.070312 62.46875 150.078125 62.464844 150.085938 62.460938 C 152.847656 62.273438 155.71875 63.769531 157.695312 65.71875 C 159.90625 67.902344 161.320312 70.738281 162.695312 73.519531 C 161.488281 72.082031 159.59375 70.8125 157.933594 69.9375 Z M 157.933594 69.9375 " fill-opacity="1" fill-rule="nonzero"/><path fill="#211400" d="M 141.238281 94.265625 C 141.078125 94.316406 140.914062 94.363281 140.753906 94.40625 C 140.195312 94.5625 139.402344 94.171875 138.867188 93.949219 C 135.515625 92.5625 132.46875 90.441406 130 87.789062 C 130.023438 88.976562 130.265625 90.160156 130.722656 91.257812 C 130.78125 91.402344 130.847656 91.546875 130.929688 91.675781 C 131.035156 91.707031 131.136719 91.734375 131.242188 91.761719 C 131.164062 91.859375 131.191406 91.949219 131.234375 92.007812 C 131.109375 91.917969 131.011719 91.804688 130.929688 91.675781 C 126.175781 90.355469 122.191406 86.542969 120.695312 81.855469 C 119.882812 83.34375 119.085938 85.183594 119.808594 86.71875 C 118.375 83.78125 118.167969 80.222656 119.171875 77.097656 C 120.050781 75.785156 121.148438 74.625 122.429688 73.699219 C 121.03125 77.257812 121.902344 81.59375 124.570312 84.34375 C 124.5625 82.949219 125.105469 81.644531 125.097656 80.25 C 126.398438 82.597656 128.003906 84.78125 129.855469 86.730469 C 129.589844 85.300781 129.6875 83.804688 130.140625 82.417969 C 132.550781 87.347656 136.480469 91.519531 141.238281 94.265625 Z M 141.238281 94.265625 " fill-opacity="1" fill-rule="nonzero"/><path fill="#211400" d="M 130.867188 56.574219 C 130.367188 56.789062 129.820312 56.871094 129.296875 57.023438 C 129.515625 56.828125 129.765625 56.660156 130.039062 56.542969 C 126.21875 57.671875 122.964844 60.203125 120.984375 63.648438 C 120.609375 62.210938 121.078125 60.355469 122.371094 59.609375 C 120.726562 59.59375 118.890625 59.613281 117.351562 59.03125 C 115.816406 58.453125 114.425781 57.199219 114.167969 55.582031 C 113.699219 57.105469 113.78125 58.757812 114.949219 59.84375 C 112.96875 58.816406 111.78125 56.914062 111.164062 54.777344 C 110.550781 52.636719 110.523438 50.382812 110.503906 48.160156 C 109.351562 49.816406 108.46875 52.054688 108.910156 54.023438 C 108.550781 52.730469 108.332031 51.398438 108.246094 50.0625 C 108.179688 49.003906 108.203125 47.925781 108.484375 46.902344 C 108.761719 45.894531 109.308594 44.9375 110.140625 44.300781 C 110.386719 47.113281 111.464844 49.855469 113.238281 52.0625 C 113.234375 51.246094 113.230469 50.433594 113.230469 49.617188 C 114.011719 51.785156 115.664062 53.625 117.738281 54.648438 C 116.742188 53.03125 115.75 51.417969 114.753906 49.804688 C 116.542969 52.515625 119.3125 54.570312 122.433594 55.5 C 124.53125 56.125 126.78125 56.238281 128.933594 55.851562 C 129.011719 55.839844 129.085938 55.824219 129.160156 55.808594 C 130.128906 55.617188 131.082031 55.328125 131.992188 54.933594 C 132.132812 55.636719 131.527344 56.289062 130.867188 56.574219 Z M 130.867188 56.574219 " fill-opacity="1" fill-rule="nonzero"/><path fill="#5e17eb" d="M 165.5 44.824219 C 166.847656 46.972656 167.511719 49.773438 166.800781 52.207031 C 166.089844 54.644531 164.300781 56.742188 162.003906 57.835938 C 163.363281 56.453125 164.171875 54.722656 164.539062 52.820312 C 163.339844 55.921875 160.128906 58.101562 156.832031 58.574219 C 157.363281 60.097656 158.316406 61.390625 158.847656 62.914062 C 155.917969 59.019531 151.449219 56.308594 146.632812 55.5 C 146.628906 55.488281 146.625 55.476562 146.621094 55.464844 C 150.371094 56.238281 154.367188 55.746094 157.8125 54.089844 C 157.160156 54.761719 156.390625 55.628906 155.734375 56.300781 C 158.070312 55.949219 160.269531 54.761719 161.847656 53.011719 C 163.421875 51.257812 164.363281 48.949219 164.464844 46.597656 C 164.0625 47.390625 163.390625 47.796875 162.578125 48.152344 C 163.414062 47.089844 163.796875 45.683594 163.609375 44.34375 C 163.425781 43.007812 162.675781 41.757812 161.578125 40.960938 C 161.671875 40.925781 161.769531 40.890625 161.863281 40.855469 C 163.414062 41.335938 164.578125 41.6875 166.128906 42.167969 C 164.652344 37.960938 161.78125 34.257812 158.074219 31.765625 C 158.1875 31.765625 158.296875 31.769531 158.40625 31.773438 C 159.253906 31.925781 160.082031 32.195312 160.847656 32.574219 C 163.847656 34.058594 165.960938 36.945312 167.191406 40.046875 C 168.292969 42.828125 168.769531 45.800781 169.175781 48.765625 C 168.726562 46.984375 167.265625 45.574219 165.5 44.824219 Z M 165.5 44.824219 " fill-opacity="1" fill-rule="nonzero"/><path fill="#5e17eb" d="M 161.402344 76.042969 C 161.273438 76.042969 161.144531 76.042969 161.019531 76.042969 C 158.933594 76.078125 156.84375 76.113281 154.757812 76.144531 C 153.503906 76.167969 152.246094 76.1875 150.992188 76.207031 C 153.082031 76.613281 155.15625 77.097656 157.207031 77.648438 C 153.65625 79.292969 149.621094 79.578125 145.714844 79.382812 C 143.773438 79.289062 136.042969 79.289062 134.101562 79.382812 C 133.386719 79.421875 132.667969 79.4375 131.949219 79.4375 C 135.101562 81.472656 137.242188 85 137.570312 88.730469 C 137.65625 87.59375 138.179688 86.542969 138.558594 85.464844 C 138.9375 84.386719 139.167969 83.164062 138.679688 82.132812 C 140.117188 82.765625 141.117188 83.96875 141.53125 85.480469 C 142.050781 83.984375 141.691406 82.21875 140.628906 81.039062 C 142.085938 81.167969 146.890625 85.332031 145.746094 92.375 C 147.738281 91.269531 149.542969 89.839844 150.871094 88.097656 C 150.5 90.183594 149.734375 91.75 147.851562 92.746094 C 150.011719 91.988281 151.988281 90.773438 153.679688 89.234375 C 153.777344 89.144531 153.875 89.050781 153.972656 88.960938 C 154 88.933594 154.03125 88.90625 154.058594 88.878906 C 154.125 88.8125 154.195312 88.746094 154.261719 88.679688 C 154.292969 88.648438 154.324219 88.613281 154.359375 88.582031 C 154.421875 88.519531 154.484375 88.453125 154.546875 88.386719 C 154.578125 88.355469 154.609375 88.324219 154.640625 88.289062 C 154.707031 88.222656 154.773438 88.152344 154.835938 88.082031 C 154.863281 88.054688 154.890625 88.023438 154.914062 87.996094 C 155 87.902344 155.082031 87.8125 155.160156 87.71875 C 155.167969 87.710938 155.175781 87.703125 155.183594 87.695312 C 155.269531 87.59375 155.355469 87.496094 155.441406 87.394531 C 155.46875 87.355469 155.5 87.320312 155.53125 87.28125 C 155.582031 87.21875 155.636719 87.152344 155.6875 87.089844 C 155.726562 87.039062 155.765625 86.992188 155.800781 86.941406 C 155.84375 86.890625 155.882812 86.839844 155.921875 86.785156 C 155.945312 86.757812 155.96875 86.726562 155.992188 86.695312 C 157.617188 84.546875 158.773438 82.046875 159.304688 79.417969 C 159.214844 79.269531 159.496094 79.3125 159.371094 79.429688 C 159.964844 80.578125 160.375 81.824219 160.578125 83.101562 C 160.621094 83.386719 160.660156 83.96875 160.578125 84.410156 C 161.886719 81.855469 162.1875 78.800781 161.402344 76.042969 Z M 161.402344 76.042969 " fill-opacity="1" fill-rule="nonzero"/><path fill="#5e17eb" d="M 157.949219 35.210938 C 156.832031 34.96875 155.660156 35.15625 154.558594 35.460938 C 152.097656 36.140625 149.800781 37.414062 147.925781 39.136719 C 149.234375 37.839844 150.546875 36.535156 151.859375 35.234375 C 147.214844 36.3125 142.828125 38.453125 139.109375 41.425781 C 139.136719 41.226562 139.15625 41.019531 139.164062 40.816406 C 138.292969 42.175781 136.808594 43.054688 135.253906 43.515625 C 133.699219 43.972656 132.0625 44.058594 130.445312 44.136719 C 132.402344 43.914062 134.261719 42.941406 135.558594 41.464844 C 132 41.757812 128.394531 42.042969 124.871094 41.457031 C 121.558594 40.90625 118.425781 39.59375 115.394531 38.148438 C 115.816406 39.207031 116.242188 40.265625 116.664062 41.320312 C 115.738281 40.5625 114.8125 39.804688 113.886719 39.046875 C 113.039062 41.574219 112.800781 44.304688 113.203125 46.941406 C 113.230469 46.890625 113.261719 46.835938 113.289062 46.785156 C 113.835938 44.25 116.472656 43.078125 118.570312 43.308594 C 119.902344 43.453125 121.121094 44.089844 122.367188 44.582031 C 126.5 46.21875 131.261719 45.96875 135.433594 44.4375 C 135.800781 44.648438 136.207031 44.792969 136.621094 44.867188 C 136.636719 44.871094 136.652344 44.875 136.667969 44.875 C 136.695312 44.878906 136.71875 44.886719 136.746094 44.890625 C 136.769531 44.890625 136.792969 44.894531 136.816406 44.898438 C 136.84375 44.902344 136.867188 44.90625 136.890625 44.90625 C 136.917969 44.910156 136.941406 44.914062 136.964844 44.914062 C 136.992188 44.917969 137.015625 44.917969 137.039062 44.921875 C 137.066406 44.921875 137.09375 44.925781 137.117188 44.925781 C 137.140625 44.925781 137.164062 44.929688 137.1875 44.929688 C 137.21875 44.929688 137.246094 44.929688 137.273438 44.929688 C 137.292969 44.929688 137.316406 44.933594 137.335938 44.933594 C 137.371094 44.933594 137.402344 44.929688 137.433594 44.929688 C 137.453125 44.929688 137.46875 44.929688 137.484375 44.929688 C 137.523438 44.925781 137.5625 44.925781 137.597656 44.921875 C 137.609375 44.921875 137.625 44.921875 137.636719 44.921875 C 137.683594 44.917969 137.734375 44.910156 137.785156 44.90625 C 138.414062 44.832031 139.027344 44.613281 139.542969 44.246094 C 140.058594 43.878906 140.414062 43.484375 140.324219 42.863281 C 141.210938 43.792969 142.664062 43.988281 143.914062 43.6875 C 145.164062 43.382812 146.261719 42.660156 147.332031 41.945312 C 149.003906 40.835938 150.675781 39.722656 152.347656 38.613281 C 153.492188 37.847656 154.652344 37.082031 155.941406 36.597656 C 157.230469 36.117188 158.683594 35.941406 159.984375 36.386719 C 160.0625 36.414062 160.140625 36.441406 160.214844 36.472656 C 159.601562 35.847656 158.808594 35.398438 157.949219 35.210938 Z M 157.949219 35.210938 " fill-opacity="1" fill-rule="nonzero"/><path fill="#211400" d="M 131.601562 69.945312 C 130.683594 71.140625 129.761719 72.335938 128.84375 73.527344 C 128.875 73.484375 128.90625 73.441406 128.9375 73.398438 C 130.863281 70.640625 129.191406 66.804688 125.863281 66.277344 C 125.351562 66.195312 124.835938 66.140625 124.332031 66.113281 C 124.332031 66.113281 130.828125 64.011719 135.945312 69 C 134.660156 67.472656 133.191406 66.09375 131.589844 64.898438 C 131.613281 64.945312 131.632812 64.992188 131.65625 65.042969 C 130.472656 64.710938 129.375 64.222656 128.382812 63.5625 C 128.160156 63.417969 127.949219 63.261719 127.738281 63.101562 C 127.285156 62.746094 126.855469 62.355469 126.453125 61.921875 C 121.320312 65.28125 117.902344 71.117188 117.496094 77.222656 C 118.570312 75.96875 120.140625 74.558594 121.214844 73.300781 C 120.300781 74.421875 119.617188 75.71875 119.171875 77.097656 C 118.992188 77.660156 118.851562 78.234375 118.75 78.820312 C 118.773438 78.828125 118.800781 78.839844 118.828125 78.851562 C 119.226562 79.066406 119.253906 79.738281 119.691406 79.851562 C 120.085938 79.949219 120.382812 79.496094 120.519531 79.109375 C 120.652344 78.726562 121.324219 78.335938 121.730469 78.34375 C 121.746094 77.828125 121.792969 77.316406 121.863281 76.8125 C 121.984375 76.972656 122.125 77.117188 122.292969 77.234375 C 122.5 77.382812 122.722656 77.488281 122.960938 77.554688 C 125.910156 76.773438 128.902344 76.132812 131.921875 75.667969 C 131.28125 73.839844 131.148438 71.832031 131.601562 69.945312 Z M 131.601562 69.945312 " fill-opacity="1" fill-rule="nonzero"/><g clip-path="url(#id2)"><g clip-path="url(#id3)"><g clip-path="url(#id4)"><g clip-path="url(#id5)"><g clip-path="url(#id6)"><path fill="#d3e966" d="M 114.660156 54.984375 C 117.109375 49.871094 120.058594 44.050781 121.734375 41.289062 C 121.464844 40.84375 121.378906 40.230469 121.738281 39.421875 C 122.105469 38.601562 122.90625 37.757812 123.570312 37.417969 C 124.019531 37.191406 124.4375 37.175781 124.738281 37.308594 C 125.039062 37.441406 125.308594 37.761719 125.441406 38.246094 C 125.632812 38.964844 125.546875 40.121094 125.183594 40.945312 C 124.824219 41.75 124.308594 42.097656 123.796875 42.199219 C 122.71875 45.777344 119.746094 53.359375 117.371094 58.996094 C 117.308594 59.144531 117.148438 59.539062 117.195312 59.644531 L 117.667969 59.164062 C 121.746094 55.039062 130.34375 46.941406 134.066406 44.019531 C 133.972656 43.507812 134.109375 42.902344 134.730469 42.273438 C 135.363281 41.632812 136.414062 41.128906 137.152344 41.046875 C 137.652344 40.992188 138.046875 41.125 138.28125 41.355469 C 138.515625 41.585938 138.65625 41.980469 138.605469 42.480469 C 138.535156 43.21875 138.042969 44.277344 137.410156 44.917969 C 136.789062 45.542969 136.1875 45.691406 135.671875 45.605469 C 132.796875 49.359375 124.808594 58.054688 120.730469 62.183594 L 119.890625 63.03125 C 119.953125 63.074219 120.011719 63.121094 120.074219 63.167969 C 120.507812 63.503906 120.960938 63.847656 121.34375 64.195312 C 121.605469 64.433594 121.882812 64.652344 122.179688 64.886719 C 122.460938 65.109375 122.753906 65.339844 123.035156 65.589844 C 124.058594 66.5 124.328125 67.628906 123.84375 68.953125 C 123.636719 69.523438 123.519531 69.953125 123.410156 70.367188 C 123.28125 70.855469 123.15625 71.316406 122.894531 71.980469 C 122.789062 72.246094 122.835938 75.109375 123.609375 76.734375 C 124.710938 79.003906 127.253906 81.03125 129.71875 82.992188 C 130.992188 84.007812 132.554688 85.273438 133.480469 86.210938 L 133.726562 86.460938 L 133.375 86.4375 C 132.335938 86.367188 130.980469 85.21875 130.101562 84.476562 C 129.980469 84.375 129.859375 84.273438 129.742188 84.175781 C 128.707031 83.308594 127.675781 82.34375 126.675781 81.40625 C 125.511719 80.316406 124.308594 79.191406 123.132812 78.257812 C 122.816406 78.496094 122.457031 78.710938 122.105469 78.667969 L 121.992188 78.652344 L 121.988281 78.539062 C 121.972656 77.976562 122.027344 77.421875 122.078125 76.886719 C 122.179688 75.785156 122.277344 74.75 121.871094 73.613281 C 121.867188 73.601562 121.847656 73.570312 121.820312 73.519531 C 120.457031 71.195312 120.59375 70.695312 120.816406 70.523438 C 120.882812 70.472656 120.96875 70.445312 121.070312 70.449219 C 121.21875 70.453125 121.378906 70.585938 121.628906 70.804688 C 121.765625 70.921875 122.0625 71.183594 122.175781 71.191406 C 123.25 68.519531 122.398438 66.5625 118.960938 63.746094 C 116.863281 62.070312 114.433594 62.230469 113.121094 63.25 C 112.953125 63.382812 112.796875 63.527344 112.652344 63.6875 C 112.148438 64.269531 112.046875 65.332031 111.945312 66.457031 C 111.835938 67.621094 111.714844 68.941406 111.105469 69.96875 C 110.597656 70.824219 110.039062 71.285156 109.390625 71.820312 C 109.019531 72.125 108.605469 72.46875 108.148438 72.929688 C 108.464844 73.125 108.765625 73.421875 109.058594 73.710938 C 109.652344 74.296875 110.214844 74.847656 110.859375 74.570312 C 111.082031 74.109375 111.308594 73.648438 111.539062 73.1875 C 111.996094 72.261719 112.472656 71.304688 112.882812 70.355469 C 112.710938 70.109375 112.519531 70.058594 112.300781 70.003906 C 112.042969 69.941406 111.753906 69.867188 111.515625 69.476562 L 111.441406 69.355469 L 111.5625 69.289062 C 112.042969 69.027344 112.75 68.949219 113.414062 70.066406 C 113.726562 70.585938 112.761719 73.835938 110.957031 75.519531 L 110.933594 75.539062 C 110.566406 75.824219 109.773438 75.238281 108.601562 74.3125 C 108.195312 73.988281 107.652344 73.558594 107.441406 73.480469 C 107.445312 73.5 107.453125 73.527344 107.464844 73.566406 C 107.828125 74.675781 108.558594 75.429688 109.585938 75.742188 C 110.90625 76.144531 112.597656 75.753906 113.894531 74.742188 C 114.089844 74.59375 114.273438 74.429688 114.441406 74.257812 C 115.109375 73.578125 115.273438 72.460938 115.4375 71.375 C 115.597656 70.292969 115.75 69.265625 116.402344 68.761719 C 116.835938 68.425781 117.441406 68.359375 118.25 68.566406 L 118.289062 68.574219 L 118.316406 68.609375 C 119.152344 69.601562 118.753906 70.460938 118.199219 71.238281 L 118.089844 71.394531 L 117.980469 71.238281 C 117.800781 70.972656 117.828125 70.617188 117.855469 70.308594 C 117.871094 70.097656 117.890625 69.859375 117.8125 69.800781 C 117.785156 69.78125 117.691406 69.742188 117.398438 69.84375 C 116.800781 70.59375 116.597656 71.46875 116.382812 72.394531 C 116.136719 73.457031 115.878906 74.554688 114.980469 75.445312 C 114.902344 75.519531 114.816406 75.59375 114.726562 75.660156 C 114.140625 76.117188 113.398438 76.367188 112.679688 76.609375 C 111.980469 76.847656 111.257812 77.089844 110.699219 77.523438 C 110.28125 77.847656 109.992188 78.253906 109.808594 78.757812 L 109.730469 78.976562 L 109.582031 78.800781 C 109.199219 78.347656 109.304688 77.941406 109.394531 77.585938 C 109.453125 77.363281 109.507812 77.160156 109.453125 76.949219 L 106.421875 83.761719 C 106.964844 83.988281 107.539062 84.128906 108.128906 84.121094 C 108.609375 84.113281 109.171875 84.09375 109.730469 83.945312 L 109.78125 83.941406 C 113.097656 84.378906 117.308594 88.808594 119.464844 92.835938 L 119.523438 92.949219 C 120.136719 94.105469 120.898438 95.542969 120.550781 96.511719 L 120.453125 96.777344 L 120.140625 96.253906 C 117.9375 92.570312 116.039062 89.390625 113.855469 87.359375 L 113.796875 87.308594 C 112.8125 86.40625 111.464844 85.167969 110.214844 84.835938 C 109.980469 84.761719 109.738281 84.835938 109.484375 84.914062 C 109.238281 84.988281 108.980469 85.066406 108.683594 85.03125 C 107.792969 84.898438 106.96875 84.628906 106.199219 84.257812 L 98.878906 100.707031 C 98.847656 100.78125 98.800781 100.847656 98.742188 100.902344 C 98.738281 100.984375 98.722656 101.0625 98.6875 101.136719 L 98.355469 101.882812 C 98.339844 101.921875 98.316406 101.957031 98.292969 101.992188 C 98.285156 102.03125 98.273438 102.070312 98.253906 102.109375 L 97.230469 104.410156 C 96.78125 105.417969 95.597656 105.875 94.589844 105.429688 L 94.3125 105.308594 C 93.304688 104.863281 92.851562 103.679688 93.300781 102.671875 L 94.433594 100.125 C 94.453125 100.082031 94.472656 100.042969 94.5 100.007812 C 94.507812 99.964844 94.523438 99.921875 94.542969 99.878906 L 94.828125 99.238281 C 94.863281 99.160156 94.914062 99.089844 94.972656 99.03125 C 94.976562 98.949219 94.992188 98.867188 95.027344 98.785156 L 102.679688 81.585938 C 102.496094 81.398438 102.316406 81.203125 102.136719 81.003906 L 92.015625 91.25 C 91.957031 91.308594 91.890625 91.355469 91.820312 91.386719 C 91.789062 91.460938 91.742188 91.527344 91.6875 91.585938 L 91.113281 92.167969 C 91.082031 92.195312 91.050781 92.222656 91.015625 92.246094 C 90.992188 92.28125 90.964844 92.3125 90.9375 92.34375 L 89.167969 94.132812 C 88.390625 94.921875 87.121094 94.929688 86.335938 94.15625 L 86.121094 93.945312 C 85.335938 93.171875 85.332031 91.902344 86.109375 91.117188 L 88.070312 89.132812 C 88.101562 89.101562 88.136719 89.070312 88.171875 89.046875 C 88.195312 89.011719 88.222656 88.976562 88.257812 88.941406 L 88.75 88.441406 C 88.8125 88.378906 88.882812 88.332031 88.960938 88.300781 C 88.992188 88.222656 89.035156 88.152344 89.097656 88.089844 L 99.445312 77.613281 C 99.371094 77.511719 99.292969 77.410156 99.21875 77.304688 C 98.488281 76.324219 97.734375 75.308594 96.957031 74.375 L 96.921875 74.328125 L 96.929688 74.273438 C 97.011719 73.625 97.375 73.042969 97.730469 72.480469 C 98.015625 72.023438 98.3125 71.554688 98.445312 71.0625 C 98.507812 70.824219 98.40625 70.535156 98.296875 70.226562 C 98.183594 69.902344 98.066406 69.566406 98.140625 69.238281 C 98.449219 68.367188 99.101562 67.714844 99.792969 67.027344 C 100.246094 66.574219 100.710938 66.109375 101.113281 65.546875 C 101.222656 65.414062 101.246094 65.195312 101.273438 64.964844 C 101.300781 64.71875 101.328125 64.464844 101.457031 64.269531 C 101.609375 64.03125 101.859375 63.8125 102.121094 63.574219 C 102.367188 63.359375 102.617188 63.136719 102.78125 62.902344 C 102.96875 62.632812 103.136719 62.378906 103.292969 62.136719 C 103.722656 61.480469 104.09375 60.910156 104.605469 60.515625 C 105.109375 60.121094 105.734375 59.921875 106.554688 59.886719 C 106.40625 58.402344 107.257812 56.816406 108.902344 55.519531 L 109.058594 55.394531 C 110.210938 54.5 111.554688 53.613281 112.8125 53.808594 C 113.472656 53.910156 114.082031 54.296875 114.660156 54.984375 Z M 123.707031 89.539062 L 123.929688 89.421875 C 123.777344 87.910156 122.546875 86.503906 121.359375 85.144531 C 121.195312 84.957031 121.03125 84.769531 120.875 84.585938 L 120.839844 84.542969 C 118.214844 81.4375 114.855469 77.914062 113.761719 78.765625 C 113.59375 78.894531 113.566406 79.039062 113.574219 79.132812 C 113.601562 79.542969 114.308594 79.945312 115.054688 80.371094 C 115.457031 80.601562 115.875 80.84375 116.101562 81.042969 C 117.582031 82.371094 119.105469 84.234375 120.449219 85.875 C 121.636719 87.328125 122.761719 88.703125 123.707031 89.539062 Z M 95.011719 100.378906 L 93.878906 102.925781 C 93.574219 103.617188 93.882812 104.421875 94.570312 104.726562 L 94.847656 104.847656 C 95.324219 105.058594 95.859375 104.976562 96.242188 104.675781 L 96.25 104.671875 C 96.417969 104.539062 96.558594 104.363281 96.652344 104.152344 L 97.675781 101.851562 C 96.652344 101.695312 95.710938 101.183594 95.03125 100.398438 Z M 95.40625 99.492188 L 95.121094 100.136719 C 95.785156 100.953125 96.738281 101.484375 97.777344 101.625 L 98.109375 100.878906 C 97.078125 100.753906 96.128906 100.269531 95.425781 99.511719 Z M 104.269531 79.578125 L 95.609375 99.042969 C 96.28125 99.855469 97.25 100.359375 98.300781 100.453125 L 108.886719 76.65625 C 108.765625 76.71875 108.648438 76.792969 108.53125 76.882812 L 108.519531 76.890625 C 108.167969 77.167969 107.878906 77.515625 107.570312 77.886719 C 107.253906 78.269531 106.925781 78.664062 106.511719 78.988281 L 106.492188 79.003906 C 106.101562 79.304688 105.6875 79.507812 105.21875 79.625 C 104.921875 79.699219 104.609375 79.671875 104.285156 79.582031 Z M 88.519531 89.578125 L 86.558594 91.5625 C 86.027344 92.101562 86.03125 92.964844 86.570312 93.492188 L 86.785156 93.707031 C 87.277344 94.191406 88.046875 94.222656 88.578125 93.8125 L 88.585938 93.804688 C 88.628906 93.769531 88.675781 93.730469 88.714844 93.691406 L 90.484375 91.898438 C 89.585938 91.390625 88.890625 90.578125 88.527344 89.601562 Z M 89.203125 88.886719 L 88.707031 89.386719 C 89.039062 90.390625 89.742188 91.222656 90.660156 91.722656 L 91.234375 91.140625 C 90.316406 90.660156 89.601562 89.867188 89.210938 88.910156 Z M 100.148438 77.804688 L 89.546875 88.535156 C 89.890625 89.53125 90.617188 90.351562 91.566406 90.804688 L 103.140625 79.085938 C 102.960938 78.988281 102.777344 78.882812 102.59375 78.78125 C 102.082031 78.492188 101.554688 78.195312 101.054688 78.019531 C 100.746094 77.914062 100.453125 77.875 100.175781 77.8125 Z M 102.910156 81.074219 L 103.601562 79.523438 L 103.59375 79.53125 L 102.46875 80.667969 C 102.617188 80.804688 102.765625 80.941406 102.910156 81.074219 Z M 107.0625 76.921875 C 106.820312 77.335938 106.546875 77.664062 106.242188 77.898438 C 105.777344 78.257812 105.257812 78.398438 104.710938 78.378906 L 104.714844 78.28125 C 104.726562 78.023438 104.796875 77.769531 104.875 77.503906 C 104.917969 77.355469 104.960938 77.195312 104.992188 77.039062 C 105.015625 76.9375 105.195312 76.042969 104.878906 75.847656 C 104.824219 75.8125 104.707031 75.773438 104.554688 75.890625 C 104.441406 75.976562 104.320312 76.140625 104.179688 76.390625 C 103.871094 76.9375 103.667969 77.601562 104.480469 78.363281 C 102.738281 78.175781 100.734375 76.535156 99.273438 75.34375 L 98.914062 75.050781 C 98.753906 74.921875 98.621094 74.816406 98.511719 74.730469 C 98.3125 74.570312 98.136719 74.433594 98.128906 74.390625 C 98.128906 74.367188 98.175781 74.296875 98.214844 74.238281 C 98.3125 74.09375 98.460938 73.871094 98.613281 73.476562 C 98.996094 72.476562 99.246094 72 99.46875 71.824219 C 99.722656 71.625 99.996094 71.847656 100.640625 72.40625 C 100.953125 72.679688 101.34375 73.023438 101.839844 73.382812 C 102.75 74.042969 103.679688 74.652344 104.578125 75.246094 C 105.394531 75.78125 106.238281 76.335938 107.0625 76.921875 Z M 106.660156 72.816406 L 106.671875 72.851562 C 106.71875 73.042969 106.757812 73.234375 106.796875 73.433594 C 106.953125 74.207031 107.128906 75.078125 108.003906 75.761719 C 107.628906 75.96875 107.394531 75.730469 106.996094 75.265625 C 106.882812 75.136719 106.769531 75 106.640625 74.871094 C 106.527344 74.761719 106.429688 74.667969 106.339844 74.585938 C 105.988281 74.261719 105.910156 74.171875 106 73.890625 C 106.113281 73.539062 106.367188 73.207031 106.609375 72.882812 C 106.628906 72.863281 106.644531 72.839844 106.660156 72.816406 Z M 107.3125 71.210938 L 107.070312 71.425781 C 105.890625 72.46875 105.308594 73.492188 105.296875 74.558594 L 105.304688 74.597656 C 105.316406 74.636719 105.332031 74.679688 105.347656 74.71875 C 105.203125 74.613281 105.050781 74.507812 104.894531 74.398438 C 102.601562 72.78125 98.757812 70.078125 99.136719 69.441406 C 99.542969 68.753906 99.953125 68.21875 100.34375 67.699219 C 100.582031 67.386719 100.808594 67.085938 101.027344 66.765625 C 100.984375 67.101562 100.722656 67.425781 100.449219 67.757812 C 100.054688 68.242188 99.648438 68.742188 99.859375 69.347656 L 99.925781 69.527344 L 100.070312 69.40625 C 100.730469 68.863281 101.050781 68.273438 101.355469 67.703125 C 101.617188 67.21875 101.867188 66.757812 102.3125 66.316406 C 102.65625 66.535156 103 66.746094 103.34375 66.957031 C 105.144531 68.066406 107.003906 69.210938 108.722656 71.152344 L 106.769531 72.675781 C 107.027344 72.320312 107.261719 71.949219 107.289062 71.535156 Z M 111.148438 64.679688 C 111.148438 66.472656 110.230469 69.867188 109.605469 70.351562 C 109.53125 70.410156 109.507812 70.390625 109.484375 70.367188 C 107.972656 68.992188 106.167969 67.785156 104.574219 66.71875 L 104.480469 66.65625 C 104.34375 66.5625 104.160156 66.460938 103.949219 66.339844 C 103.34375 65.996094 102.433594 65.480469 102.40625 65.085938 C 102.40625 65.050781 102.398438 64.941406 102.566406 64.808594 C 102.609375 64.777344 102.640625 64.753906 102.671875 64.730469 C 103.386719 64.175781 103.796875 63.480469 104.191406 62.808594 C 104.484375 62.316406 104.789062 61.800781 105.210938 61.355469 C 105.359375 61.199219 105.488281 61.082031 105.601562 60.992188 C 106.085938 60.617188 106.273438 60.765625 106.855469 61.34375 C 106.976562 61.464844 107.113281 61.597656 107.265625 61.742188 L 107.492188 61.949219 C 108.664062 63.027344 109.875 64.136719 111.148438 64.679688 Z M 135.488281 42.449219 C 135.375 42.535156 135.273438 42.625 135.183594 42.71875 C 134.613281 43.296875 134.601562 43.832031 134.804688 44.238281 L 134.808594 44.246094 C 134.742188 44.296875 134.671875 44.351562 134.597656 44.40625 L 134.554688 44.441406 C 130.910156 47.277344 122.222656 55.460938 118.121094 59.609375 L 117.492188 60.25 C 117.773438 60.800781 118.070312 61.308594 118.421875 61.746094 C 118.667969 62.035156 119.007812 62.332031 119.390625 62.636719 L 120.277344 61.738281 C 124.476562 57.488281 132.839844 48.375 135.433594 44.863281 L 135.445312 44.867188 C 135.796875 45.039062 136.25 45.046875 136.730469 44.671875 L 136.746094 44.664062 C 136.816406 44.609375 136.886719 44.542969 136.957031 44.472656 C 137.71875 43.699219 138.253906 42.222656 137.835938 41.808594 C 137.46875 41.449219 136.296875 41.824219 135.496094 42.441406 Z M 112.085938 55.046875 C 112.515625 54.710938 112.667969 54.640625 113.28125 55.246094 C 114.527344 56.480469 115.386719 58.160156 116.140625 59.640625 C 116.398438 60.152344 116.648438 60.640625 116.898438 61.085938 C 116.503906 61.117188 116.113281 61.113281 115.734375 61.113281 C 114.546875 61.105469 113.425781 61.101562 112.199219 61.96875 C 111.742188 62.296875 111.65625 62.640625 111.578125 62.972656 C 111.507812 63.261719 111.445312 63.53125 111.152344 63.828125 C 108.75 62.097656 107.558594 60.769531 107.402344 59.648438 C 107.324219 59.101562 107.492188 58.578125 107.90625 58.050781 C 108.234375 57.632812 108.855469 57.226562 109.640625 56.746094 C 110.242188 56.375 110.925781 55.957031 111.652344 55.390625 C 111.75 55.316406 111.832031 55.25 111.90625 55.1875 C 111.972656 55.136719 112.03125 55.089844 112.085938 55.046875 Z M 123.46875 38.238281 C 123.015625 38.589844 122.558594 39.140625 122.316406 39.679688 C 121.988281 40.425781 122.167969 40.929688 122.507812 41.238281 C 120.867188 43.847656 117.675781 50.148438 115.089844 55.554688 C 115.8125 56.625 116.3125 57.707031 116.785156 58.75 L 116.84375 58.613281 C 119.296875 52.777344 122.375 44.914062 123.3125 41.59375 L 123.324219 41.59375 C 123.585938 41.617188 123.859375 41.558594 124.109375 41.363281 L 124.117188 41.355469 C 124.296875 41.210938 124.464844 40.996094 124.601562 40.6875 C 125.042969 39.699219 125.019531 38.128906 124.480469 37.890625 C 124.234375 37.78125 123.859375 37.9375 123.480469 38.230469 Z M 103.746094 65.242188 L 103.882812 65.082031 C 104.058594 64.871094 104.246094 64.664062 104.4375 64.457031 C 105.296875 63.511719 106.1875 62.535156 105.890625 61.390625 L 105.851562 61.234375 L 105.703125 61.304688 C 105.648438 61.332031 105.597656 61.363281 105.550781 61.398438 C 105.289062 61.601562 105.261719 61.898438 105.238281 62.183594 C 105.21875 62.398438 105.199219 62.621094 105.082031 62.8125 C 104.957031 63.011719 104.722656 63.210938 104.472656 63.425781 C 103.945312 63.871094 103.351562 64.378906 103.65625 65.050781 Z M 111.183594 57.457031 C 111.40625 57.28125 111.460938 57.027344 111.515625 56.78125 C 111.554688 56.601562 111.589844 56.433594 111.6875 56.304688 L 112.3125 55.488281 L 111.207031 56.347656 C 110.636719 56.789062 110.332031 57 109.097656 57.320312 L 108.789062 57.398438 L 109.0625 57.5625 C 109.628906 57.902344 110.273438 57.769531 110.882812 57.601562 C 111 57.570312 111.101562 57.519531 111.183594 57.457031 " fill-opacity="1" fill-rule="evenodd"/></g></g></g></g></g><g clip-path="url(#id7)"><g clip-path="url(#id8)"><g clip-path="url(#id9)"><path fill="#d3e966" d="M 97.660156 97.441406 C 97.695312 97.417969 97.730469 97.445312 97.726562 97.484375 C 97.726562 97.570312 97.636719 97.824219 97.507812 97.777344 C 97.457031 97.757812 97.414062 97.6875 97.390625 97.652344 C 97.242188 97.371094 97.402344 97.019531 97.5625 96.78125 C 97.625 96.691406 97.714844 96.578125 97.828125 96.550781 C 98.121094 96.488281 98.238281 96.851562 98.199219 97.078125 C 98.175781 97.210938 98.140625 97.339844 98.097656 97.464844 C 98.207031 97.347656 98.347656 97.152344 98.523438 97.109375 C 98.648438 97.078125 98.894531 97.207031 98.738281 97.332031 C 98.636719 97.414062 98.523438 97.484375 98.425781 97.566406 L 98.164062 97.785156 C 98.214844 97.871094 98.320312 97.960938 98.347656 98.0625 C 98.363281 98.121094 98.328125 98.234375 98.246094 98.195312 C 98.132812 98.140625 98.089844 98 98.03125 97.90625 C 97.933594 97.996094 97.828125 97.828125 97.835938 97.742188 C 97.839844 97.695312 97.855469 97.652344 97.871094 97.609375 C 97.820312 97.523438 97.753906 97.402344 97.695312 97.300781 C 97.683594 97.347656 97.671875 97.394531 97.660156 97.441406 Z M 98.851562 96.011719 C 98.621094 95.839844 98.511719 95.5625 98.398438 95.316406 C 98.359375 95.230469 98.316406 95.132812 98.335938 95.039062 C 98.347656 94.988281 98.425781 94.945312 98.460938 94.996094 C 98.515625 95.074219 98.570312 95.15625 98.617188 95.242188 C 98.683594 95.359375 98.742188 95.480469 98.800781 95.601562 C 98.765625 95.5 98.730469 95.414062 98.753906 95.304688 C 98.777344 95.171875 98.960938 95.230469 99.011719 95.304688 C 99.105469 95.441406 99.109375 95.484375 99.128906 95.644531 C 99.222656 95.601562 99.128906 95.417969 99.117188 95.375 C 99.109375 95.363281 99.113281 95.34375 99.125 95.335938 C 99.152344 95.3125 99.222656 95.351562 99.222656 95.351562 C 99.265625 95.371094 99.289062 95.457031 99.296875 95.496094 C 99.332031 95.675781 99.316406 95.867188 99.089844 95.875 C 99.15625 95.976562 99.207031 96.171875 99.015625 96.101562 C 99.082031 96.316406 99.082031 96.617188 98.769531 96.554688 C 98.769531 96.601562 98.75 96.644531 98.753906 96.691406 C 98.761719 96.78125 98.839844 96.867188 98.789062 96.960938 C 98.648438 97.222656 98.320312 96.972656 98.238281 96.792969 C 98.191406 96.691406 98.1875 96.558594 98.226562 96.457031 C 98.246094 96.402344 98.324219 96.351562 98.375 96.402344 C 98.460938 96.332031 98.59375 96.46875 98.636719 96.519531 C 98.632812 96.511719 98.632812 96.503906 98.628906 96.496094 C 98.566406 96.453125 98.511719 96.378906 98.488281 96.308594 C 98.464844 96.230469 98.445312 96.15625 98.433594 96.074219 C 98.429688 96.027344 98.4375 95.980469 98.449219 95.933594 C 98.519531 95.660156 98.921875 96.097656 98.691406 96.148438 C 98.703125 96.207031 98.707031 96.273438 98.734375 96.328125 C 98.757812 96.375 98.855469 96.386719 98.867188 96.324219 C 98.890625 96.191406 98.882812 96.140625 98.851562 96.011719 Z M 98.429688 96.667969 C 98.441406 96.75 98.476562 96.820312 98.539062 96.875 C 98.546875 96.878906 98.554688 96.882812 98.558594 96.886719 C 98.578125 96.894531 98.601562 96.898438 98.609375 96.875 C 98.621094 96.839844 98.625 96.804688 98.613281 96.769531 C 98.589844 96.769531 98.558594 96.761719 98.539062 96.75 C 98.492188 96.722656 98.464844 96.707031 98.429688 96.667969 Z M 97.929688 97.375 C 97.96875 97.207031 98.003906 97.035156 98 96.859375 C 98 96.84375 97.996094 96.824219 97.988281 96.808594 C 97.984375 96.785156 97.964844 96.761719 97.941406 96.773438 C 97.902344 96.789062 97.871094 96.84375 97.851562 96.878906 C 97.832031 96.914062 97.816406 96.949219 97.796875 96.988281 C 97.777344 97.027344 97.761719 97.070312 97.742188 97.113281 C 97.832031 97.183594 97.875 97.273438 97.929688 97.375 Z M 98.921875 95.484375 C 98.925781 95.503906 98.933594 95.523438 98.9375 95.539062 C 98.953125 95.597656 98.96875 95.644531 98.996094 95.695312 C 99 95.695312 99.007812 95.691406 99.011719 95.6875 C 99.007812 95.660156 98.996094 95.636719 98.984375 95.613281 C 98.964844 95.570312 98.949219 95.523438 98.921875 95.484375 Z M 99.277344 94.554688 C 99.117188 94.679688 98.941406 94.417969 98.90625 94.285156 C 98.839844 94.019531 98.941406 93.613281 99.164062 93.445312 C 99.246094 93.382812 99.3125 93.484375 99.335938 93.546875 C 99.363281 93.617188 99.386719 93.78125 99.382812 93.855469 C 99.382812 93.871094 99.34375 94.015625 99.300781 93.929688 C 99.28125 93.890625 99.265625 93.84375 99.253906 93.800781 C 99.21875 93.875 99.199219 93.957031 99.1875 94.039062 C 99.171875 94.117188 99.167969 94.199219 99.167969 94.277344 C 99.167969 94.300781 99.167969 94.332031 99.183594 94.347656 C 99.199219 94.359375 99.21875 94.339844 99.230469 94.332031 C 99.257812 94.300781 99.28125 94.265625 99.304688 94.234375 C 99.402344 94.125 99.515625 93.984375 99.664062 93.9375 C 99.777344 93.90625 99.933594 93.949219 99.976562 94.070312 C 100.0625 94.308594 99.96875 94.527344 99.886719 94.753906 C 99.859375 94.835938 99.800781 95.023438 99.683594 95.042969 C 99.53125 95.070312 99.414062 94.898438 99.460938 94.761719 C 99.472656 94.726562 99.535156 94.679688 99.570312 94.710938 C 99.65625 94.558594 99.722656 94.375 99.746094 94.203125 C 99.75 94.167969 99.753906 94.132812 99.734375 94.105469 C 99.683594 94.121094 99.644531 94.164062 99.605469 94.203125 C 99.515625 94.289062 99.382812 94.480469 99.277344 94.554688 Z M 100.09375 92.371094 C 100.097656 92.335938 100.105469 92.300781 100.117188 92.269531 C 100.132812 92.234375 100.148438 92.203125 100.171875 92.175781 C 100.324219 91.996094 100.464844 92.417969 100.519531 92.449219 C 100.550781 92.394531 100.519531 92.304688 100.503906 92.257812 C 100.5 92.242188 100.507812 92.226562 100.519531 92.214844 C 100.542969 92.195312 100.613281 92.234375 100.613281 92.234375 C 100.742188 92.292969 100.738281 92.515625 100.691406 92.621094 C 100.65625 92.703125 100.585938 92.726562 100.511719 92.679688 C 100.464844 92.652344 100.421875 92.621094 100.382812 92.582031 C 100.359375 92.554688 100.339844 92.519531 100.324219 92.488281 L 100.3125 92.535156 C 100.355469 92.589844 100.386719 92.65625 100.414062 92.726562 C 100.488281 92.828125 100.554688 92.992188 100.523438 93.125 C 100.496094 93.230469 100.386719 93.230469 100.304688 93.175781 C 100.339844 93.261719 100.4375 93.449219 100.277344 93.496094 C 100.238281 93.507812 100.191406 93.503906 100.148438 93.5 C 100.183594 93.605469 100.277344 94.058594 100.019531 93.9375 C 99.988281 93.921875 99.960938 93.902344 99.933594 93.878906 C 99.933594 93.882812 99.929688 93.886719 99.925781 93.890625 C 99.898438 93.914062 99.824219 93.875 99.824219 93.875 C 99.734375 93.832031 99.738281 93.691406 99.6875 93.605469 C 99.683594 93.621094 99.679688 93.636719 99.671875 93.652344 C 99.671875 93.675781 99.660156 93.707031 99.640625 93.714844 C 99.617188 93.722656 99.59375 93.703125 99.578125 93.6875 C 99.539062 93.644531 99.5 93.597656 99.480469 93.546875 C 99.457031 93.484375 99.492188 93.378906 99.515625 93.324219 C 99.472656 93.269531 99.441406 93.21875 99.441406 93.144531 C 99.445312 93.019531 99.582031 93.015625 99.621094 93.125 C 99.625 93.117188 99.625 93.113281 99.628906 93.109375 C 99.636719 93.097656 99.648438 93.089844 99.660156 93.089844 C 99.75 93.085938 99.78125 93.226562 99.820312 93.304688 C 99.839844 93.339844 99.78125 93.417969 99.777344 93.425781 C 99.820312 93.492188 99.925781 93.648438 100.011719 93.667969 C 100.054688 93.613281 100.003906 93.480469 99.992188 93.445312 C 99.933594 93.402344 99.902344 93.328125 99.882812 93.261719 C 99.839844 93.097656 99.785156 92.894531 99.851562 92.726562 C 99.878906 92.648438 100.039062 92.621094 100.050781 92.730469 C 100.1875 92.71875 100.207031 92.894531 100.320312 92.941406 C 100.335938 92.886719 100.320312 92.828125 100.304688 92.777344 C 100.285156 92.753906 100.277344 92.726562 100.261719 92.699219 C 100.152344 92.753906 100.0625 92.601562 100.035156 92.527344 C 100.019531 92.492188 100.007812 92.351562 100.09375 92.371094 Z M 99.277344 94.554688 C 99.277344 94.558594 99.277344 94.554688 99.277344 94.554688 Z M 100.046875 92.972656 C 100.050781 93.070312 100.054688 93.171875 100.101562 93.261719 C 100.113281 93.285156 100.140625 93.320312 100.171875 93.316406 C 100.171875 93.3125 100.171875 93.308594 100.171875 93.308594 C 100.160156 93.1875 100.105469 93.078125 100.046875 92.972656 " fill-opacity="1" fill-rule="nonzero"/></g></g></g><g fill="#ffffff" fill-opacity="1"><g transform="translate(114.112416, 118.367147)"><g><path d="M 4.421875 0 L 2.171875 0 C 1.578125 0 1.132812 -0.117188 0.84375 -0.359375 C 0.5625 -0.597656 0.421875 -0.960938 0.421875 -1.453125 L 0.421875 -3.6875 C 0.421875 -4.1875 0.5625 -4.554688 0.84375 -4.796875 C 1.132812 -5.035156 1.578125 -5.15625 2.171875 -5.15625 L 3.96875 -5.15625 C 4.050781 -5.15625 4.113281 -5.132812 4.15625 -5.09375 C 4.195312 -5.050781 4.21875 -4.984375 4.21875 -4.890625 L 4.21875 -4.03125 C 4.21875 -3.9375 4.195312 -3.867188 4.15625 -3.828125 C 4.113281 -3.785156 4.050781 -3.765625 3.96875 -3.765625 L 2.46875 -3.765625 C 2.320312 -3.765625 2.210938 -3.734375 2.140625 -3.671875 C 2.078125 -3.617188 2.046875 -3.53125 2.046875 -3.40625 L 2.046875 -1.703125 C 2.046875 -1.585938 2.070312 -1.5 2.125 -1.4375 C 2.175781 -1.382812 2.257812 -1.359375 2.375 -1.359375 L 3.0625 -1.359375 L 3.0625 -2.46875 C 3.0625 -2.5625 3.082031 -2.625 3.125 -2.65625 C 3.164062 -2.695312 3.234375 -2.71875 3.328125 -2.71875 L 4.421875 -2.71875 C 4.515625 -2.71875 4.582031 -2.695312 4.625 -2.65625 C 4.664062 -2.625 4.6875 -2.5625 4.6875 -2.46875 L 4.6875 -0.25 C 4.6875 -0.164062 4.664062 -0.101562 4.625 -0.0625 C 4.582031 -0.0195312 4.515625 0 4.421875 0 Z M 4.421875 0 "/></g></g></g><g fill="#ffffff" fill-opacity="1"><g transform="translate(121.184682, 118.367147)"><g><path d="M 4.859375 -1.359375 C 4.859375 -1.128906 4.828125 -0.925781 4.765625 -0.75 C 4.703125 -0.570312 4.585938 -0.421875 4.421875 -0.296875 C 4.253906 -0.171875 4.023438 -0.0703125 3.734375 0 C 3.453125 0.0703125 3.085938 0.109375 2.640625 0.109375 C 2.191406 0.109375 1.820312 0.0703125 1.53125 0 C 1.25 -0.0703125 1.023438 -0.171875 0.859375 -0.296875 C 0.691406 -0.421875 0.578125 -0.570312 0.515625 -0.75 C 0.453125 -0.925781 0.421875 -1.128906 0.421875 -1.359375 L 0.421875 -3.796875 C 0.421875 -4.015625 0.453125 -4.210938 0.515625 -4.390625 C 0.578125 -4.566406 0.691406 -4.71875 0.859375 -4.84375 C 1.023438 -4.976562 1.25 -5.082031 1.53125 -5.15625 C 1.820312 -5.226562 2.191406 -5.265625 2.640625 -5.265625 C 3.085938 -5.265625 3.453125 -5.226562 3.734375 -5.15625 C 4.023438 -5.082031 4.253906 -4.976562 4.421875 -4.84375 C 4.585938 -4.71875 4.703125 -4.566406 4.765625 -4.390625 C 4.828125 -4.210938 4.859375 -4.015625 4.859375 -3.796875 Z M 2.046875 -1.609375 C 2.046875 -1.515625 2.078125 -1.4375 2.140625 -1.375 C 2.210938 -1.3125 2.378906 -1.28125 2.640625 -1.28125 C 2.898438 -1.28125 3.0625 -1.3125 3.125 -1.375 C 3.195312 -1.4375 3.234375 -1.515625 3.234375 -1.609375 L 3.234375 -3.53125 C 3.234375 -3.625 3.195312 -3.703125 3.125 -3.765625 C 3.0625 -3.828125 2.898438 -3.859375 2.640625 -3.859375 C 2.378906 -3.859375 2.210938 -3.828125 2.140625 -3.765625 C 2.078125 -3.703125 2.046875 -3.625 2.046875 -3.53125 Z M 2.046875 -1.609375 "/></g></g></g><g fill="#ffffff" fill-opacity="1"><g transform="translate(128.464528, 118.367147)"><g><path d="M 2.109375 -3.859375 L 2.109375 -2.953125 L 2.640625 -2.953125 C 2.765625 -2.953125 2.847656 -2.984375 2.890625 -3.046875 C 2.941406 -3.109375 2.96875 -3.1875 2.96875 -3.28125 L 2.96875 -3.53125 C 2.96875 -3.625 2.941406 -3.703125 2.890625 -3.765625 C 2.847656 -3.828125 2.765625 -3.859375 2.640625 -3.859375 Z M 1.859375 0 L 0.75 0 C 0.65625 0 0.585938 -0.0195312 0.546875 -0.0625 C 0.515625 -0.101562 0.5 -0.164062 0.5 -0.25 L 0.5 -4.890625 C 0.5 -4.984375 0.515625 -5.050781 0.546875 -5.09375 C 0.585938 -5.132812 0.65625 -5.15625 0.75 -5.15625 L 3.140625 -5.15625 C 3.671875 -5.15625 4.035156 -5.039062 4.234375 -4.8125 C 4.441406 -4.59375 4.546875 -4.304688 4.546875 -3.953125 L 4.546875 -3.625 C 4.546875 -3.425781 4.515625 -3.253906 4.453125 -3.109375 C 4.390625 -2.972656 4.285156 -2.875 4.140625 -2.8125 C 4.398438 -2.78125 4.609375 -2.671875 4.765625 -2.484375 C 4.929688 -2.304688 5.015625 -2.070312 5.015625 -1.78125 L 5.015625 -0.25 C 5.015625 -0.164062 4.992188 -0.101562 4.953125 -0.0625 C 4.910156 -0.0195312 4.84375 0 4.75 0 L 3.640625 0 C 3.546875 0 3.476562 -0.0195312 3.4375 -0.0625 C 3.40625 -0.101562 3.390625 -0.164062 3.390625 -0.25 L 3.390625 -1.359375 C 3.390625 -1.460938 3.367188 -1.535156 3.328125 -1.578125 C 3.285156 -1.628906 3.210938 -1.65625 3.109375 -1.65625 L 2.109375 -1.65625 L 2.109375 -0.25 C 2.109375 -0.164062 2.085938 -0.101562 2.046875 -0.0625 C 2.003906 -0.0195312 1.941406 0 1.859375 0 Z M 1.859375 0 "/></g></g></g><g fill="#ffffff" fill-opacity="1"><g transform="translate(135.787327, 118.367147)"><g><path d="M 0.640625 0 C 0.546875 0 0.476562 -0.0195312 0.4375 -0.0625 C 0.394531 -0.101562 0.375 -0.164062 0.375 -0.25 L 0.375 -1.109375 C 0.375 -1.203125 0.394531 -1.265625 0.4375 -1.296875 C 0.476562 -1.335938 0.546875 -1.359375 0.640625 -1.359375 L 1.34375 -1.359375 L 1.34375 -3.765625 L 0.640625 -3.765625 C 0.546875 -3.765625 0.476562 -3.785156 0.4375 -3.828125 C 0.394531 -3.867188 0.375 -3.9375 0.375 -4.03125 L 0.375 -4.890625 C 0.375 -4.984375 0.394531 -5.050781 0.4375 -5.09375 C 0.476562 -5.132812 0.546875 -5.15625 0.640625 -5.15625 L 3.6875 -5.15625 C 3.78125 -5.15625 3.84375 -5.132812 3.875 -5.09375 C 3.914062 -5.050781 3.9375 -4.984375 3.9375 -4.890625 L 3.9375 -4.03125 C 3.9375 -3.9375 3.914062 -3.867188 3.875 -3.828125 C 3.84375 -3.785156 3.78125 -3.765625 3.6875 -3.765625 L 2.984375 -3.765625 L 2.984375 -1.359375 L 3.6875 -1.359375 C 3.78125 -1.359375 3.84375 -1.335938 3.875 -1.296875 C 3.914062 -1.265625 3.9375 -1.203125 3.9375 -1.109375 L 3.9375 -0.25 C 3.9375 -0.164062 3.914062 -0.101562 3.875 -0.0625 C 3.84375 -0.0195312 3.78125 0 3.6875 0 Z M 0.640625 0 "/></g></g></g><g fill="#ffffff" fill-opacity="1"><g transform="translate(142.122302, 118.367147)"><g><path d="M 4.390625 0 L 0.75 0 C 0.65625 0 0.585938 -0.0195312 0.546875 -0.0625 C 0.515625 -0.101562 0.5 -0.164062 0.5 -0.25 L 0.5 -4.890625 C 0.5 -4.984375 0.515625 -5.050781 0.546875 -5.09375 C 0.585938 -5.132812 0.65625 -5.15625 0.75 -5.15625 L 1.859375 -5.15625 C 1.953125 -5.15625 2.019531 -5.132812 2.0625 -5.09375 C 2.101562 -5.050781 2.125 -4.984375 2.125 -4.890625 L 2.125 -1.359375 L 3.09375 -1.359375 L 3.09375 -2.515625 C 3.09375 -2.597656 3.113281 -2.660156 3.15625 -2.703125 C 3.195312 -2.742188 3.265625 -2.765625 3.359375 -2.765625 L 4.390625 -2.765625 C 4.484375 -2.765625 4.550781 -2.742188 4.59375 -2.703125 C 4.632812 -2.660156 4.65625 -2.597656 4.65625 -2.515625 L 4.65625 -0.25 C 4.65625 -0.164062 4.632812 -0.101562 4.59375 -0.0625 C 4.550781 -0.0195312 4.484375 0 4.390625 0 Z M 4.390625 0 "/></g></g></g><g fill="#ffffff" fill-opacity="1"><g transform="translate(149.101509, 118.367147)"><g><path d="M 4.390625 0 L 0.75 0 C 0.65625 0 0.585938 -0.0195312 0.546875 -0.0625 C 0.515625 -0.101562 0.5 -0.164062 0.5 -0.25 L 0.5 -4.890625 C 0.5 -4.984375 0.515625 -5.050781 0.546875 -5.09375 C 0.585938 -5.132812 0.65625 -5.15625 0.75 -5.15625 L 1.859375 -5.15625 C 1.953125 -5.15625 2.019531 -5.132812 2.0625 -5.09375 C 2.101562 -5.050781 2.125 -4.984375 2.125 -4.890625 L 2.125 -1.359375 L 3.09375 -1.359375 L 3.09375 -2.515625 C 3.09375 -2.597656 3.113281 -2.660156 3.15625 -2.703125 C 3.195312 -2.742188 3.265625 -2.765625 3.359375 -2.765625 L 4.390625 -2.765625 C 4.484375 -2.765625 4.550781 -2.742188 4.59375 -2.703125 C 4.632812 -2.660156 4.65625 -2.597656 4.65625 -2.515625 L 4.65625 -0.25 C 4.65625 -0.164062 4.632812 -0.101562 4.59375 -0.0625 C 4.550781 -0.0195312 4.484375 0 4.390625 0 Z M 4.390625 0 "/></g></g></g><g fill="#ffffff" fill-opacity="1"><g transform="translate(156.080714, 118.367147)"><g><path d="M 2.359375 -3.65625 L 2.03125 -2.5625 L 3.15625 -2.5625 L 2.8125 -3.65625 C 2.789062 -3.695312 2.769531 -3.722656 2.75 -3.734375 C 2.726562 -3.753906 2.703125 -3.765625 2.671875 -3.765625 L 2.5 -3.765625 C 2.46875 -3.765625 2.441406 -3.753906 2.421875 -3.734375 C 2.398438 -3.722656 2.378906 -3.695312 2.359375 -3.65625 Z M 1.953125 -0.25 C 1.953125 -0.164062 1.929688 -0.101562 1.890625 -0.0625 C 1.847656 -0.0195312 1.785156 0 1.703125 0 L 0.640625 0 C 0.554688 0 0.492188 -0.0195312 0.453125 -0.0625 C 0.410156 -0.101562 0.390625 -0.164062 0.390625 -0.25 L 0.390625 -2.140625 C 0.390625 -2.285156 0.410156 -2.453125 0.453125 -2.640625 C 0.492188 -2.828125 0.566406 -3.046875 0.671875 -3.296875 L 1.28125 -4.921875 C 1.3125 -4.992188 1.359375 -5.050781 1.421875 -5.09375 C 1.484375 -5.132812 1.5625 -5.15625 1.65625 -5.15625 L 3.578125 -5.15625 C 3.671875 -5.15625 3.742188 -5.132812 3.796875 -5.09375 C 3.859375 -5.050781 3.90625 -4.992188 3.9375 -4.921875 L 4.5625 -3.296875 C 4.65625 -3.046875 4.722656 -2.828125 4.765625 -2.640625 C 4.816406 -2.453125 4.84375 -2.285156 4.84375 -2.140625 L 4.84375 -0.25 C 4.84375 -0.164062 4.820312 -0.101562 4.78125 -0.0625 C 4.738281 -0.0195312 4.671875 0 4.578125 0 L 3.5 0 C 3.40625 0 3.332031 -0.0195312 3.28125 -0.0625 C 3.238281 -0.101562 3.21875 -0.164062 3.21875 -0.25 L 3.21875 -1.265625 L 1.953125 -1.265625 Z M 1.953125 -0.25 "/></g></g></g></svg>